<?xml version="1.0" standalone="no"?>
<!DOCTYPE svg PUBLIC "-//W3C//DTD SVG 1.1//EN" "http://www.w3.org/Graphics/SVG/1.1/DTD/svg11.dtd" >
<svg xmlns="http://www.w3.org/2000/svg">
<metadata>
This is a custom SVG webfont generated by Font Squirrel.
Copyright   : Copyright c 2010 by Type the Font All rights reserved
Designer    : Dannci
Foundry     : Type the Font
Foundry URL : httptypethefontcom
</metadata>
<defs>
<font id="SertigLight" horiz-adv-x="909" >
<font-face units-per-em="2048" ascent="1487" descent="-561" />
<missing-glyph horiz-adv-x="454" />
<glyph unicode=" "  horiz-adv-x="454" />
<glyph unicode="&#x09;" horiz-adv-x="454" />
<glyph unicode="&#xa0;" horiz-adv-x="454" />
<glyph unicode="!" horiz-adv-x="454" d="M143 0v172h172l-2 -172h-170zM145 1462h166l-14 -1100h-135z" />
<glyph unicode="&#x22;" horiz-adv-x="632" d="M113 1231v235h141v-508h-96zM379 1231v235h141v-508h-100z" />
<glyph unicode="#" d="M39 907l6 113h236l86 407l104 -2l-84 -407h234l88 414l104 -2l-86 -414h137l-6 -113l-153 2l-78 -389l237 -2l-6 -94h-252l-84 -420l-104 2l84 422l-236 -2l-86 -422l-106 2l84 422l-117 -2l4 94l135 2l78 391zM287 518h233l78 389h-233z" />
<glyph unicode="$" d="M74 397h125q4 -61 12 -98t28.5 -89t65.5 -84t113 -46v631q-78 49 -119 80.5t-94 86t-77 122t-24 153.5q0 47 11.5 94t41 103.5t97.5 94.5t164 44v94h92v-98q43 -8 78 -24.5t74.5 -52.5t69.5 -107.5t46 -172.5h-123q-27 238 -145 281v-621q4 -2 11 -7t11 -7 q53 -37 79 -56.5t73 -63.5t70.5 -83t43 -99t19.5 -126q0 -178 -117 -285q-23 -20 -43 -33.5t-43.5 -19.5t-35 -9t-39 -5t-31.5 -2l2 -98l-94 -3v101q-41 4 -65.5 8t-80 28.5t-90.5 63.5t-67.5 117.5t-38.5 187.5zM219 1155q0 -78 39 -144.5t74 -95t86 -63.5v563 q-63 -10 -106.5 -43t-62 -78t-24.5 -77.5t-6 -61.5zM510 80q55 8 113 65q76 76 75 195q0 76 -27.5 137.5t-62.5 99t-98 87.5v-584z" />
<glyph unicode="%" horiz-adv-x="1593" d="M76 1100q0 207 56 299t187 92q121 0 172.5 -87t51.5 -294q0 -190 -53.5 -293.5t-180.5 -103.5q-131 0 -182 96t-51 291zM176 1079q0 -59 3 -97t14.5 -92t40 -83t75.5 -29q39 0 65.5 24.5t39 56.5t19.5 85t8 83t1 79q0 86 -4 136t-15 97t-38 67.5t-68 20.5 q-82 0 -111.5 -85t-29.5 -263zM264 -55l774 1546h99l-766 -1546h-107zM881 332q0 207 56 299t187 92q121 0 172.5 -87t51.5 -294q0 -190 -53.5 -293.5t-180.5 -103.5q-131 0 -182 96t-51 291zM977 311q0 -303 137 -303q25 0 44.5 8.5t32.5 29t22.5 36.5t15.5 50t9 51.5 t4 57.5t1 50v47q0 166 -24.5 238.5t-104.5 72.5q-82 0 -109.5 -80t-27.5 -258z" />
<glyph unicode="&#x26;" horiz-adv-x="1251" d="M111 365q0 61 23.5 122.5t51 102.5t80.5 91t79 70.5t79 59.5q10 8 16 12q-4 6 -30.5 44t-45 69t-42 75t-36 91t-12.5 90q0 121 80 210t225.5 89t218 -87t72.5 -192q0 -199 -272 -411q156 -217 313 -402q43 86 72 230h133q0 -4 -4 -1t-4 1q-53 -195 -115 -320l250 -309 h-180l-137 197q-137 -205 -398 -205q-205 0 -311 115t-106 258zM244 369q0 -115 88 -206t207 -91q145 0 301 219q-66 74 -124.5 146.5t-89 114.5t-71.5 101.5t-55 77.5q-256 -172 -256 -362zM403 1192q0 -74 39 -162t82 -147q213 172 213 338q0 68 -43 123t-119 55 q-72 0 -122 -59.5t-50 -147.5z" />
<glyph unicode="'" horiz-adv-x="405" d="M133 1231v235h141v-508h-110z" />
<glyph unicode="(" horiz-adv-x="569" d="M135 541q0 481 260 950h97q-250 -446 -250 -967q0 -406 258 -954h-80q-2 4 -30 51t-39 70l-39 78q-28 55 -43 96t-39.5 104.5t-38 124t-29 133t-21.5 151.5t-6 163z" />
<glyph unicode=")" horiz-adv-x="569" d="M68 1491h79q2 -4 30 -51t39 -70l39 -78q28 -55 43 -96t39.5 -104.5t38 -124t29 -133t21.5 -151.5t6 -163q0 -481 -260 -950h-96q250 446 250 967q0 405 -258 954z" />
<glyph unicode="*" horiz-adv-x="796" d="M94 1233l37 104l231 -118l-22 247h115l-19 -247l230 110l34 -104l-237 -72l184 -211l-88 -65l-160 233l-155 -233l-90 65l186 211z" />
<glyph unicode="+" d="M57 676v92h355v348h92v-348h348v-92h-348v-354h-92v354h-355z" />
<glyph unicode="," horiz-adv-x="454" d="M139 2v193h170v-203q0 -184 -170 -287v94q37 41 48.5 56.5t21.5 53.5t6 93h-76z" />
<glyph unicode="-" horiz-adv-x="681" d="M76 612h534l2 -118h-534z" />
<glyph unicode="." horiz-adv-x="454" d="M143 0v180h170v-180h-170z" />
<glyph unicode="/" horiz-adv-x="569" d="M-16 -37l475 1512h106l-473 -1512h-108z" />
<glyph unicode="0" d="M76 780q0 96 4 168t16.5 161t38 151.5t65.5 119t105.5 85t149.5 28.5q86 0 150.5 -28.5t105.5 -87t66.5 -122t36.5 -155.5t15.5 -165t4.5 -173q0 -94 -1.5 -145.5t-8.5 -143.5t-20 -146.5t-41 -124t-67 -107.5t-100 -65.5t-139 -27.5q-88 0 -154.5 29.5t-107.5 91 t-66 125t-36 165t-14 176t-3 191.5zM199 700q0 -74 1 -116.5t6 -117.5t14 -120t27.5 -101.5t46.5 -88t70 -54t95 -22.5q45 0 83 14.5t63.5 47t44 65.5t29.5 90t18.5 99t9.5 116t3 115t1 118v122q0 36 -3 115t-9.5 116t-17.5 98t-29.5 91t-45 63.5t-63.5 47t-84 13.5 t-85 -14.5t-64.5 -46t-46 -65.5t-31 -92t-18.5 -103.5t-10 -123t-4 -128t-1 -138.5z" />
<glyph unicode="1" d="M242 1145v112q84 39 136 80t136 129h80v-1466h-115v1272z" />
<glyph unicode="2" d="M70 0q16 178 71.5 277.5t231.5 283.5q195 201 267.5 314.5t72.5 222.5q0 141 -79 214.5t-163 73.5q-59 0 -107.5 -26.5t-75 -58t-47 -86t-27.5 -82t-15 -72.5h-111q8 45 11 60.5t17.5 67.5t30 79.5t45 71.5t65.5 67t89 41t119 18q180 0 275.5 -106.5t95.5 -253.5 q0 -72 -17.5 -132.5t-106.5 -189.5t-259 -301q-96 -100 -131 -139t-69 -99.5t-46 -131.5l635 -2v-109z" />
<glyph unicode="3" d="M66 412h120q37 -340 258 -340q111 0 187 94t76 256q0 170 -89 256q-86 84 -192 84h-80v69q109 0 163 34t95 98q51 80 51 184q0 98 -57 168.5t-158 70.5q-70 0 -122 -33.5t-80.5 -86t-42 -105.5t-13.5 -102h-110q8 184 117.5 296.5t246.5 110.5q145 -2 238.5 -95 t91.5 -224q-4 -242 -199 -332v-4q135 -29 201 -144.5t61 -242.5q-6 -205 -113.5 -319.5t-277.5 -114.5q-215 0 -305 162q-57 98 -67 260z" />
<glyph unicode="4" d="M25 387v102l581 981h86l2 -976l62 -5v-102h-64v-383h-112v383h-555zM145 489l435 5v741l8 2z" />
<glyph unicode="5" d="M90 428h115q4 -127 70.5 -237.5t185.5 -110.5q53 0 96 23.5t68.5 54t45 82t28 86t12.5 89t4 68.5v45q0 43 -5 83t-24.5 108.5t-73 110.5t-135.5 42q-162 0 -274 -167h-101l35 768l635 2v-107l-547 -2l2 -506h13q117 111 264 111q100 0 170.5 -44t103.5 -118t46.5 -145.5 t13.5 -151.5q0 -90 -18.5 -173t-60.5 -162t-122 -127t-191 -48q-164 0 -257 118t-99 308z" />
<glyph unicode="6" d="M88 778q0 109 4 183.5t15.5 166t38 150.5t67.5 113.5t106.5 80t153.5 25.5q262 0 303 -385q2 -12 2 -18h-112q0 6 -5.5 50t-10.5 69.5t-18.5 68.5t-31.5 66.5t-51 43t-76 19.5q-150 0 -213 -147.5t-63 -454.5h4q109 174 284 174q66 0 130.5 -28.5t105.5 -77.5 q98 -121 98 -359q0 -512 -356 -512q-88 0 -153.5 32t-105.5 96.5t-64.5 130t-35 166.5t-13.5 171t-3 176zM219 539q0 -45 2 -82t15.5 -111t37 -124t73.5 -90t120 -40q72 0 121 45t70.5 118t29.5 135.5t8 129.5q0 377 -219 377q-94 0 -155.5 -66.5t-82 -142t-20.5 -149.5z " />
<glyph unicode="7" d="M51 1341v107h813v-109q-68 -74 -129 -152.5t-145 -213.5t-144.5 -274.5t-105.5 -325t-49 -373.5h-133q20 430 217 834q49 100 105.5 190t94 138t86 105.5t60.5 73.5h-670z" />
<glyph unicode="8" d="M78 397q0 338 231 408q-33 16 -54.5 31.5t-56 51.5t-53 96t-18.5 140q0 166 91 261.5t245 95.5q170 0 249 -106.5t79 -248.5q0 -76 -17.5 -134t-52.5 -96t-55.5 -54.5t-53.5 -36.5q31 -14 49.5 -23.5t55.5 -41t58.5 -68.5t40 -104.5t18.5 -149.5q0 -195 -102.5 -304.5 t-276.5 -109.5q-166 0 -271.5 97t-105.5 296zM193 438q0 -127 30 -188q80 -162 232 -162q117 0 190.5 86t73.5 264q0 84 -24.5 146.5t-56.5 94.5t-73 51.5t-64.5 23.5t-41.5 4q-109 0 -187.5 -83t-78.5 -237zM238 1120q0 -158 71.5 -225.5t151.5 -67.5q111 0 165 89.5 t54 203.5q0 125 -62.5 200t-158.5 75q-100 0 -160.5 -79t-60.5 -196z" />
<glyph unicode="9" d="M86 954q0 33 1 60.5t8 85t19.5 101.5t40 98.5t64.5 90t96.5 60.5t133.5 25q76 0 134 -28t97 -67t65.5 -108.5t41 -128t21.5 -149.5t8 -149.5t1 -150.5q0 -131 -5 -216t-26.5 -184t-60.5 -156.5t-112.5 -96.5t-178.5 -39q-276 0 -319 348h112q6 -39 10.5 -60.5t19.5 -67.5 t36.5 -71.5t60.5 -47t90 -21.5q150 0 207.5 136t57.5 446h-4q-109 -174 -285 -175q-66 0 -130.5 29t-105.5 78q-98 120 -98 358zM209 952q0 -365 217 -364q94 0 156.5 63.5t83 136t20.5 146.5q0 455 -242 455q-72 0 -122 -46.5t-72.5 -120t-31.5 -139t-9 -131.5z" />
<glyph unicode=":" horiz-adv-x="454" d="M143 63v179h170v-179h-170zM143 883v176h170v-176h-170z" />
<glyph unicode=";" horiz-adv-x="454" d="M143 0v193h170v-203q0 -184 -170 -287v94q37 41 48.5 56.5t21.5 53.5t6 93h-76zM143 868v193h170v-193h-170z" />
<glyph unicode="&#x3c;" d="M125 680v74l659 374v-102l-559 -313l557 -295v-113z" />
<glyph unicode="=" d="M57 434v105h795v-105h-795zM59 879v102h795v-102h-795z" />
<glyph unicode="&#x3e;" d="M125 1018v110l659 -374v-74l-657 -375v123l559 285z" />
<glyph unicode="?" horiz-adv-x="796" d="M70 1059q45 432 350 432q137 0 220 -87t83 -235q0 -164 -141 -378q-78 -119 -94.5 -190t-14.5 -239h-170q-2 133 31 228.5t131 245.5q43 66 66.5 105.5t43 100t19.5 121.5q0 100 -50 168t-134 68q-61 0 -104.5 -36t-65 -100.5t-28.5 -104.5t-13 -99h-129zM303 0v172h170 v-172h-170z" />
<glyph unicode="@" horiz-adv-x="1638" d="M59 608q0 274 118 479t303.5 304.5t404.5 99.5q322 0 508 -210t186 -511t-172 -490.5t-389 -189.5q-55 0 -84 25.5t-29 68.5q0 6 4 35l-4 4q-109 -129 -239 -129q-133 0 -211 116t-78 298q0 166 58.5 318.5t160.5 248.5t223 96q176 0 221 -184h4l29 160h121l-176 -854 q-8 -35 -8 -64q0 -59 61 -59q53 0 118.5 37t127 106.5t103.5 187t42 261.5q0 289 -149.5 471t-427.5 182q-326 0 -511.5 -233.5t-185.5 -581.5q0 -336 179.5 -547t492.5 -211q330 0 549 252h158q-117 -145 -262 -227q-190 -106 -445 -107q-344 0 -572.5 229.5t-228.5 618.5z M502 506q0 -307 164 -307q70 0 135 46t92 117q98 258 98 488q0 84 -43 155.5t-123 71.5q-104 0 -182 -104.5t-109.5 -230t-31.5 -236.5z" />
<glyph unicode="A" horiz-adv-x="1024" d="M-2 0l422 1417l147 49l457 -1466h-145l-123 410h-504l-117 -410h-137zM283 520h440l-229 756z" />
<glyph unicode="B" horiz-adv-x="1024" d="M168 0v1466h258q39 0 63.5 -1t74.5 -8t84 -19.5t77 -39t69.5 -64.5t45 -97t18.5 -133q0 -254 -217 -334v-4q47 -10 79 -22.5t76 -48.5t76 -91q51 -86 52 -203q0 -74 -19.5 -137t-51.5 -104t-57.5 -65.5t-52.5 -41.5q-82 -53 -317 -53h-258zM297 805h135q145 0 219 80 t74 209q0 283 -322 282h-104zM299 113h137q348 0 348 293q0 203 -157 278q-63 31 -260 31h-68v-602z" />
<glyph unicode="C" horiz-adv-x="1138" d="M104 731q0 70 1 113t10.5 133t27 150.5t54 137t87 124t131.5 80t183 32.5q74 0 136.5 -19.5t104.5 -47t76.5 -72.5t54 -79t37 -84t21.5 -71.5t12 -56.5h-129q-61 354 -313 354q-354 0 -354 -673q0 -137 13 -245t48 -208t105.5 -155.5t175.5 -55.5q72 0 129 32t88 70.5 t56.5 107.5t33.5 103.5t20 100.5h140q-10 -68 -26.5 -128.5t-52.5 -132t-84 -121.5t-128 -84t-178.5 -34t-176 30.5t-127 77t-85 118t-52 130t-27 141.5t-11.5 127t-1 105z" />
<glyph unicode="D" horiz-adv-x="1138" d="M170 0v1466h260q115 0 190.5 -9t161.5 -49t137.5 -111.5t85 -201.5t33.5 -317q0 -262 -28.5 -382t-94.5 -214q-57 -80 -140 -123t-146.5 -51t-157.5 -8h-301zM303 100h133q115 0 198 32t134 86t81 139t40 179.5t10 219.5q0 102 -8 181t-34 165t-69 141t-119.5 92 t-181.5 37h-182z" />
<glyph unicode="E" d="M168 0v1466l633 -2v-116l-500 2v-551h461v-105h-461v-577h526v-117h-659z" />
<glyph unicode="F" d="M168 0v1466h659v-116h-526v-553h469l2 -103h-471v-694h-133z" />
<glyph unicode="G" horiz-adv-x="1138" d="M102 750q0 252 32 374.5t99 208.5q125 158 328 158q377 0 447 -430h-146q-2 23 -5 38t-15.5 64t-34 85t-52 76t-81.5 62.5t-113 22.5q-190 0 -274 -258q-45 -139 -45 -367q0 -242 25.5 -354.5t74.5 -189.5q29 -45 64.5 -78t61.5 -47.5t62.5 -21.5t47.5 -7h38 q135 0 269 96v428h-285v117h418v-727l-133 47q-139 -59 -285 -59q-238 0 -358 168q-70 96 -105 227t-35 367z" />
<glyph unicode="H" horiz-adv-x="1138" d="M166 0v1432l133 34v-637h541v633h133v-1462h-133v692h-541v-692h-133z" />
<glyph unicode="I" horiz-adv-x="454" d="M162 0v1427l133 39v-1466h-133z" />
<glyph unicode="J" horiz-adv-x="796" d="M39 432h125q0 -55 1 -89t10 -90t25.5 -89t51.5 -58.5t82 -25.5q57 0 93 33.5t50.5 99.5t17.5 112t3 119v1006l133 39v-1053q0 -207 -35 -282q-31 -68 -98.5 -112t-161.5 -44q-70 0 -121 18.5t-83 57.5t-51.5 75.5t-27.5 96t-10 93.5t-4 93z" />
<glyph unicode="K" horiz-adv-x="1024" d="M168 0v1427l133 39v-761l514 761h152l-451 -647l508 -819h-162l-413 727l-148 -205v-522h-133z" />
<glyph unicode="L" d="M168 0v1421l133 45v-1349h533v-117h-666z" />
<glyph unicode="M" horiz-adv-x="1478" d="M170 0v1405l195 61l374 -1241l379 1241h193v-1466h-125v1337l-383 -1337h-131l-377 1333v-1333h-125z" />
<glyph unicode="N" horiz-adv-x="1138" d="M166 0v1413l166 53l516 -1298v1298h125v-1466h-172l-510 1255v-1255h-125z" />
<glyph unicode="O" horiz-adv-x="1138" d="M104 739q0 293 48 430q113 322 421 322q92 0 166 -29.5t122 -75t82 -116t51.5 -132t26.5 -148.5t11 -140t2 -127q0 -66 -1 -112t-11 -127t-26.5 -140t-51.5 -128t-82 -113t-121.5 -73.5t-169 -29.5t-169 28.5t-123 71.5t-83 112t-52 128t-26.5 143t-11.5 134t-2.5 122z M244 735q0 -354 80 -506q31 -57 98 -100t149 -43q66 0 118 25.5t85 62.5t57.5 97.5t37 111.5t18.5 127t7 122t1 113q0 92 -3 161t-21.5 170.5t-50.5 167t-94 113.5t-151 48q-102 0 -170.5 -56.5t-102.5 -160t-46 -210t-12 -243.5z" />
<glyph unicode="P" horiz-adv-x="1024" d="M168 0v1466h281q492 0 491 -422q0 -131 -55.5 -232t-161.5 -153q-98 -47 -297 -47h-125v-612h-133zM301 713h88q412 0 412 334q0 86 -30 149.5t-71 95t-99 51t-97 23.5t-82 4h-121v-657z" />
<glyph unicode="Q" horiz-adv-x="1138" d="M104 723q0 307 48 446q109 322 421 322q92 0 165 -28.5t120 -72.5t82 -114t52.5 -131.5t27.5 -145.5t12 -139t2 -129q0 -174 -20.5 -298t-43 -177t-61.5 -113l148 -143h-158l-51 72q-100 -76 -277 -76q-106 0 -188 33.5t-131 97t-81 130.5t-45 160t-17.5 157.5 t-4.5 148.5zM244 709q0 -57 1 -100.5t8 -113t19.5 -121.5t38 -111.5t59 -97.5t87 -63.5t118.5 -25.5q63 0 120 26.5t69 49.5q90 82 110.5 190.5t20.5 351.5v49q0 668 -324 668q-327 0 -327 -702z" />
<glyph unicode="R" horiz-adv-x="1024" d="M170 0v1466h297q203 0 289 -47q176 -94 176 -336q0 -86 -22.5 -163.5t-92 -151.5t-180.5 -92v-4q4 -2 28.5 -8.5t30.5 -9.5t29 -13t32 -22.5t28.5 -34t32.5 -50t32.5 -70.5t38.5 -93l8 -25l127 -346h-168q-68 248 -76 266q-63 201 -122.5 274.5t-163.5 94.5h-185v-635 h-139zM303 733h131q55 0 111.5 15.5t115 50.5t95.5 106.5t37 171.5q0 160 -78 230q-45 39 -107.5 50t-220.5 11h-84v-635z" />
<glyph unicode="S" horiz-adv-x="1024" d="M76 455h131q43 -354 313 -355q127 0 200 81t73 186q0 66 -24 119t-76 98t-89 68.5t-106 62.5q-188 106 -278.5 201.5t-90.5 240.5q0 154 101.5 251t256.5 97q82 0 172.5 -33.5t147.5 -117.5q68 -100 76 -275h-129q-20 340 -254 340q-106 0 -174 -84t-68 -172 q0 -55 23.5 -103t80 -93t94.5 -70t117 -70q186 -106 268.5 -208.5t82.5 -245.5q0 -150 -99.5 -270.5t-298.5 -120.5q-201 0 -317.5 124t-132.5 349z" />
<glyph unicode="T" d="M35 1350v116h837v-116h-352v-1350h-141v1350h-344z" />
<glyph unicode="U" horiz-adv-x="1138" d="M168 1425l135 52v-1010q0 -47 1 -73.5t8 -78t24.5 -84t45.5 -66.5t77 -51.5t112 -17.5q166 0 236 137q33 68 33 297v947h133v-957q0 -170 -21 -256q-61 -264 -381 -264q-82 0 -147.5 19.5t-106.5 47t-70.5 74.5t-44 85t-22.5 96.5t-9 89t-1 82.5z" />
<glyph unicode="V" horiz-adv-x="1024" d="M10 1464l150 -2l352 -1331l365 1335h137l-434 -1466h-140z" />
<glyph unicode="W" horiz-adv-x="1478" d="M14 1466h138l247 -1306l248 1241l174 65l258 -1306l258 1306h129l-319 -1466h-137l-267 1296h-4l-274 -1296h-137z" />
<glyph unicode="X" horiz-adv-x="1024" d="M8 0l457 735l-385 731h143l295 -602l309 602h150l-399 -731l438 -735h-150l-348 621l-360 -621h-150z" />
<glyph unicode="Y" horiz-adv-x="1024" d="M14 1466h152l344 -725l354 725h146l-443 -835v-631h-133v631z" />
<glyph unicode="Z" d="M39 0v117l639 1231l-557 2v116h706v-114l-628 -1237l653 2v-117h-813z" />
<glyph unicode="[" horiz-adv-x="569" d="M152 -322v1788h362v-88h-252v-1611h252v-89h-362z" />
<glyph unicode="\" horiz-adv-x="454" d="M-59 1491l120 -4l478 -1524h-119z" />
<glyph unicode="]" horiz-adv-x="569" d="M53 -231h252v1609h-252v88h363v-1785h-363v88z" />
<glyph unicode="^" d="M68 901l393 590l383 -590h-101l-282 451l-293 -451h-100z" />
<glyph unicode="_" horiz-adv-x="1024" d="M-20 -147h1071v-109l-1071 -2v111z" />
<glyph unicode="`" horiz-adv-x="681" d="M201 1462h164l55 -264h-88z" />
<glyph unicode="a" horiz-adv-x="796" d="M82 266q0 133 69.5 212t233.5 134q113 39 170 74l-2 53q0 59 -4 96t-19.5 81.5t-51.5 67t-93 22.5q-23 0 -43 -5.5t-34.5 -16.5t-27 -23.5t-21.5 -31t-15 -31.5t-11.5 -34.5t-7.5 -31t-5 -30t-3 -22.5q-2 -2 -12 -2q-27 3 -67 3q-20 0 -42 -1q18 143 72 207q72 90 219 90 q78 0 134.5 -26.5t85 -62.5t44 -93t18.5 -95t3 -91v-412q0 -106 13 -156.5t58 -140.5h-135q-20 61 -28 94q-74 -100 -232 -100q-113 0 -189.5 65.5t-76.5 206.5zM205 279q0 -86 46 -143.5t109 -57.5q43 0 89.5 32.5t68.5 77.5q25 51 31 134.5t6 285.5q-106 -51 -129 -59 q-221 -88 -221 -270z" />
<glyph unicode="b" d="M141 -2v1423l119 45v-526h4q78 145 244 145q317 0 317 -534q0 -72 -3 -124t-12 -124t-30.5 -121t-55.5 -96t-89 -70.5t-127 -23.5q-106 0 -164.5 41t-79.5 88h-4v-123h-119zM260 498q0 -147 27 -244q53 -180 198 -180q217 0 217 426v70q0 17 -2 77t-7 88.5t-14 79.5 t-24.5 79t-37 59.5t-53.5 45t-70 13.5q-143 0 -203 -211q-31 -121 -31 -303z" />
<glyph unicode="c" horiz-adv-x="796" d="M80 559q0 57 1 96t8 97.5t19.5 98.5t37 85t58.5 71.5t85 45t117 18.5q84 0 142 -26.5t90 -79t45 -95.5t26 -110h-113q-16 106 -60 173q-43 65 -131 64h-6q-63 0 -105 -35.5t-60.5 -103t-24.5 -129t-6 -147.5q0 -498 217 -498q53 0 88 20.5t52.5 63.5t24.5 75.5t11 88.5 h125q-4 -47 -10 -80t-26.5 -85t-50.5 -85t-87.5 -57.5t-132.5 -24.5q-92 0 -158 40t-98.5 93t-51 139t-22.5 145.5t-4 141.5z" />
<glyph unicode="d" d="M84 551q0 518 319 518q172 0 242 -129h4v490l119 36v-1468h-119v123h-4q-55 -127 -239 -127q-86 0 -148.5 37t-95.5 90t-51.5 135t-22.5 145.5t-4 149.5zM207 500q0 -426 217 -426q150 0 199 180q27 96 26 244q0 190 -31 303q-51 186 -196 186q-45 0 -80 -19.5t-57.5 -47 t-38 -74.5t-22.5 -84t-11 -95.5t-5 -88t-1 -78.5z" />
<glyph unicode="e" horiz-adv-x="796" d="M80 567q0 109 12 192t45 159.5t99.5 118.5t162.5 42q322 0 322 -458v-95h-518q2 -96 9 -154.5t26.5 -134t65.5 -113.5t116 -38q59 0 99 29.5t56.5 78t21.5 80t7 66.5h117q-31 -338 -301 -338q-172 0 -256 126t-84 439zM203 629h399v67q0 23 -1 41.5t-6 58.5t-18.5 71.5 t-34 63.5t-56 50t-83.5 18q-45 0 -77.5 -13t-54 -45t-35 -59.5t-19.5 -79.5t-9 -82t-5 -91z" />
<glyph unicode="f" horiz-adv-x="454" d="M59 975v88l95 -2v196q0 233 204 234q18 0 119 -18v-101q-55 39 -98 39q-104 0 -105 -133l-2 -217h170v-88h-170v-973h-118v973z" />
<glyph unicode="g" d="M84 522q0 547 332 547q106 0 154 -35t79 -100h4v127h117v-1079q0 -41 -1 -64.5t-7 -72t-17.5 -81t-34 -72.5t-55 -63.5t-85 -41t-117.5 -17.5q-88 0 -154 24.5t-97.5 55.5t-52 80t-24.5 73.5t-6 61.5h121q6 -109 70.5 -164t125.5 -55q213 0 213 297v182h-4 q-35 -59 -86 -92t-153 -33q-322 0 -322 522zM207 516q0 -61 2 -107.5t14.5 -115t32.5 -111.5t62 -75.5t102 -32.5q137 0 194 166q37 113 37 317q0 174 -24 258q-53 180 -201 180q-59 0 -101 -31.5t-64.5 -77.5t-35 -117t-15.5 -125t-3 -128z" />
<glyph unicode="h" d="M135 0v1434l119 32v-514h4q73 115 235 115h11q272 -6 272 -395l-2 -672h-119v748q0 88 -42 162.5t-111 76.5h-7q-52 0 -109 -32q-60 -34 -95 -101q-37 -74 -37 -240v-614h-119z" />
<glyph unicode="i" horiz-adv-x="454" d="M168 0v1065h119v-1065h-119zM168 1343v123h119v-123h-119z" />
<glyph unicode="j" horiz-adv-x="454" d="M-6 -313q2 0 23.5 -13.5t31.5 -15.5q11 -2 21 -2q38 0 64 31q34 39 34 157v1217h119v-1098q0 -90 -6.5 -147.5t-25.5 -121t-65.5 -94t-117.5 -30.5q-29 0 -78 8v109zM168 1466h119l2 -129h-119z" />
<glyph unicode="k" horiz-adv-x="796" d="M145 0v1427l119 39v-854l359 449h135l-361 -440l387 -621h-131l-317 553l-72 -80v-473h-119z" />
<glyph unicode="l" horiz-adv-x="454" d="M168 0v1427l119 39v-1466h-119z" />
<glyph unicode="m" horiz-adv-x="1366" d="M139 0v1024l119 37v-105h4q14 20 28.5 37t30 27t27.5 19.5t27.5 14.5t26 8t25.5 4t20 1h20h16q37 0 53.5 -2t54.5 -12.5t66.5 -41t53.5 -79.5q80 136 244 136q12 0 24 -1q39 -2 77 -12.5t82 -36t71.5 -78.5t27.5 -127v-813h-119v766q0 49 -10 93t-47 84t-96 40 q-137 0 -201 -139q-10 -23 -14.5 -63t-4.5 -71.5t1.5 -81.5t1.5 -65v-563h-119v754q0 51 -11.5 97t-49.5 86t-99 40q-129 0 -190 -121q-10 -25 -15.5 -63.5t-6.5 -64.5q-1 -13 -0.5 -30.5t0.5 -39.5q1 -44 1 -48v-610h-119z" />
<glyph unicode="n" d="M135 0v1061h119v-109h4q23 35 37 52.5t65.5 39t126.5 21.5q82 0 143.5 -35t90.5 -85t41 -91t12 -70v-784h-119v748q0 233 -180 233q-121 0 -184 -127q-37 -74 -37 -240v-614h-119z" />
<glyph unicode="o" d="M84 549q0 518 369 518q373 0 372 -537q0 -535 -370 -534q-94 0 -163 31.5t-108 82t-62.5 126t-30.5 148.5t-7 165zM207 553q0 -59 3 -107.5t11 -106.5t25.5 -102t44 -83t68.5 -59.5t98 -20.5q246 0 245 467q0 446 -247.5 446t-247.5 -434z" />
<glyph unicode="p" d="M141 -408v1469h119v-121h4q55 129 234 129q96 0 164.5 -52t101.5 -138t47 -173.5t14 -181.5q0 -59 -5 -116.5t-23.5 -136t-50 -136t-92 -99.5t-142.5 -42h-6q-174 0 -242 127h-4v-529h-119zM260 557q0 -182 27 -285q55 -199 200 -198q45 0 80 19.5t57.5 47t38 74.5 t22.5 84t11 95.5t5 88t1 78.5q0 426 -217 426q-143 0 -196 -180q-29 -105 -29 -250z" />
<glyph unicode="q" d="M84 524q0 92 16.5 181.5t52 174.5t103.5 137t160 52q174 0 229 -129h4v121h119v-1469h-119v529h-4q-20 -37 -36.5 -58.5t-66.5 -45t-122 -23.5q-80 0 -142.5 41t-97.5 100.5t-58.5 135t-30.5 137t-7 116.5zM207 561q0 -49 1 -78.5t5 -88t11 -95.5t22.5 -84t38 -74.5 t57.5 -47t80 -19.5q150 0 201 198q27 102 26 285q0 154 -28 250q-53 180 -197 180q-217 0 -217 -426z" />
<glyph unicode="r" horiz-adv-x="569" d="M137 0v1061h109v-141h4q25 80 71 122.5t136 42.5q82 0 110 -18v-131q-53 47 -110 47q-131 0 -174 -143q-27 -82 -27 -279v-561h-119z" />
<glyph unicode="s" horiz-adv-x="796" d="M61 291h121q16 -115 76.5 -166t142.5 -51q94 0 146.5 55t52.5 123q0 45 -21.5 84t-63.5 70.5t-71.5 49t-81.5 42.5q-145 72 -210.5 142.5t-65.5 170.5q0 109 72.5 181.5t216.5 72.5q137 0 212 -71.5t93 -190.5h-119q-6 82 -56 133t-140 51q-70 0 -117 -46t-47 -110 q0 -70 51 -118.5t186 -116.5q143 -72 214 -147.5t71 -180.5q0 -18 -3 -41.5t-22.5 -67.5t-51.5 -79t-97.5 -61.5t-155.5 -26.5q-176 0 -254 110q-68 89 -78 189z" />
<glyph unicode="t" horiz-adv-x="454" d="M66 965v88l67 2v272l119 76v-348h154v-88h-154v-717q0 -49 2 -73.5t9 -56.5t25.5 -45.5t49.5 -13.5q8 0 29.5 6.5t47 14.5t34.5 10v-104q-63 -12 -119 -13q-125 0 -161 72t-36 225v695z" />
<glyph unicode="u" d="M137 324v698l117 39v-709q0 -92 48 -184t126 -92q137 0 190 131q37 94 37 239v615h119v-1061h-119l2 100q-67 -105 -221 -104h-12q-102 2 -171 61.5t-92.5 128t-23.5 138.5z" />
<glyph unicode="v" horiz-adv-x="796" d="M4 1061h119l274 -879h4l281 879h111l-336 -1061h-117z" />
<glyph unicode="w" horiz-adv-x="1138" d="M2 1061l137 -2l133 -899l224 852l141 49l219 -901l160 907l121 -6l-207 -1061h-133l-226 901h-4l-241 -901h-131z" />
<glyph unicode="x" horiz-adv-x="796" d="M0 0l326 508l-318 553h133l252 -447l266 447h134l-334 -553l338 -508h-127l-277 406l-262 -406h-131z" />
<glyph unicode="y" horiz-adv-x="796" d="M0 1061h115l291 -911l270 911h117l-379 -1249l-4 -17q-35 -117 -78 -171t-127 -54q-53 0 -121 14v121q82 -16 102 -16q61 0 80 49q37 88 41 106l45 156z" />
<glyph unicode="z" horiz-adv-x="681" d="M25 0v98l475 865h-453v98h590v-98l-471 -865h485v-98h-626z" />
<glyph unicode="{" horiz-adv-x="718" d="M117 465v131q53 2 92 26.5t58.5 56.5t29.5 83t12 81.5t2 76.5q0 266 8.5 342.5t47.5 130.5q37 47 84 70.5t76.5 26.5t74.5 1v-78q-117 -2 -148.5 -70.5t-31.5 -300.5q0 -211 -47 -325.5t-187 -181.5q139 -63 187.5 -180t48.5 -304q0 -264 25.5 -328.5t152.5 -70.5v-82 q-162 -2 -227.5 80t-65.5 258q0 272 -4 339.5t-29 119.5q-20 43 -51.5 66.5t-52 26.5t-55.5 5z" />
<glyph unicode="|" horiz-adv-x="454" d="M176 -406v1872h105v-1872h-105z" />
<glyph unicode="}" horiz-adv-x="718" d="M115 -338q129 6 153.5 66.5t24.5 322.5q0 190 45 303t182 176q-137 66 -181 181.5t-44 330.5q0 229 -32 293t-148 66v90q45 2 74.5 -1t76.5 -26.5t84 -70.5q39 -53 47.5 -130t8.5 -343q0 -45 2 -76t12 -82t29.5 -83t58.5 -56.5t92 -26.5v-131q-35 -2 -55.5 -5t-52 -26.5 t-52.5 -66.5q-25 -51 -28.5 -119t-3.5 -340q0 -176 -66 -258t-227 -80v92z" />
<glyph unicode="~" d="M72 643v117q88 88 186 88q66 0 158 -51l55 -31l59 -31q96 -49 129 -49q113 0 181 105v-119q-74 -78 -174 -78q-86 0 -242 90q-123 72 -162 72q-47 0 -101 -37t-89 -76z" />
<glyph unicode="&#xa1;" horiz-adv-x="454" d="M143 866v193h170v-193h-170zM158 -90l35 788h71l41 -788v-318h-147v318z" />
<glyph unicode="&#xa2;" d="M139 547q0 98 6.5 165.5t24.5 145.5t60 130t110 77q78 31 166 18l61 369l80 -10l-63 -379q80 -35 119.5 -107.5t62.5 -205.5l-115 -27q-12 166 -86 225l-145 -866q49 -8 53 -8q47 0 82 21.5t52.5 46t30.5 72.5t16 73.5t8 74.5l114 -20q-6 -53 -10 -84t-24.5 -92.5 t-49 -96t-85 -64.5t-132.5 -30q-49 0 -72 7l-63 -379l-80 14l66 391q-187 101 -187 539zM262 567q0 -344 84 -436l141 850q-66 8 -114 -16q-68 -35 -89.5 -118t-21.5 -280z" />
<glyph unicode="&#xa3;" d="M43 84q121 115 174 247t53 218q0 43 -18 131h-209v106h180l-14 43q-68 205 -68 310q0 158 90.5 255t247.5 97q139 0 236.5 -84t103.5 -285l-114 -18q-8 289 -224 289q-121 0 -173 -81t-52 -169q0 -47 15.5 -110.5t23.5 -84.5q2 -8 17.5 -57t17.5 -57q2 -4 16 -48h250 v-106h-225q10 -66 10 -109q0 -195 -178 -430l4 -4q70 20 131 21q86 0 182 -37q78 -29 123 -29q94 0 184 60l45 -107q-121 -70 -233 -70q-63 0 -139 29q-143 53 -191 53q-94 0 -215 -77z" />
<glyph unicode="&#xa4;" d="M84 309l92 117q-59 113 -59 293t59 293l-92 118l66 52l79 -105q96 84 232 84q117 0 225 -84l86 105l62 -52l-95 -124q55 -121 56 -279q0 -180 -56 -297l95 -121l-66 -53l-82 106q-94 -86 -229 -86q-61 0 -108.5 14.5t-67 28t-52.5 39.5l-79 -102zM199 721q0 -156 47 -244 q63 -119 210.5 -119t211.5 123q45 92 45 250q0 348 -258 348q-256 0 -256 -358z" />
<glyph unicode="&#xa5;" d="M0 1466h135l328 -714l313 714h133l-336 -733h267v-88h-305l-13 -24v-138h318v-88h-318v-395h-129v395h-323v88h323v138l-10 24h-313v88h272z" />
<glyph unicode="&#xa6;" horiz-adv-x="454" d="M176 371h105v-777h-105v777zM176 688v778h105v-778h-105z" />
<glyph unicode="&#xa7;" d="M84 639q0 201 244 276q-45 49 -71 82t-56.5 98.5t-30.5 129.5q0 102 68.5 184t210.5 82q252 0 301 -338h-121q-27 233 -183 233q-76 0 -118.5 -46t-42.5 -101t43 -123.5t90 -118t151 -147.5q152 -147 204 -227t52 -172q0 -63 -21.5 -112.5t-61.5 -82.5t-73.5 -51.5 t-80.5 -38.5q92 -90 127 -158.5t35 -146.5q0 -135 -86 -213t-209 -78q-55 0 -102.5 15.5t-78 37t-56 56t-40 62.5t-27 68.5t-15.5 60t-9 52.5h123q4 -49 14 -87t31.5 -78t62.5 -61.5t101 -21.5q80 0 128 48.5t48 125.5q0 61 -35 122t-77 103t-140 128q-158 139 -228.5 237.5 t-70.5 200.5zM201 655q0 -43 14 -82q18 -51 45 -82.5t160 -164.5l18 -19l80 -74q53 14 92 40t57.5 50.5t29 55.5t11.5 43t1 24q0 59 -43 119q-84 119 -174 197l-17 16l-78 74q-35 -10 -58.5 -19.5t-60 -31t-57 -58.5t-20.5 -88z" />
<glyph unicode="&#xa8;" horiz-adv-x="681" d="M125 1212v174h123v-174h-123zM434 1212v174h123v-174h-123z" />
<glyph unicode="&#xa9;" horiz-adv-x="1638" d="M55 727q0 319 224.5 541.5t540 222.5t539.5 -223.5t224 -540.5q0 -315 -224 -539.5t-539.5 -224.5t-540 223.5t-224.5 540.5zM147 727q0 -279 197 -475.5t475.5 -196.5t475 197t196.5 475q0 281 -197.5 476.5t-474 195.5t-474.5 -195.5t-198 -476.5zM440 729 q0 162 101.5 289t287.5 127q209 0 322 -221l-96 -29q-72 166 -226 166q-27 0 -58.5 -6t-72.5 -27.5t-72.5 -55.5t-54 -95.5t-22.5 -141.5q0 -168 80 -261t190 -93q59 0 103.5 18.5t73 54t43 62.5t30.5 70l90 -33q-16 -45 -30.5 -72.5t-52.5 -80t-102.5 -81t-150.5 -28.5 q-176 0 -279.5 132t-103.5 306z" />
<glyph unicode="&#xaa;" horiz-adv-x="544" d="M47 926q0 84 42 136t132 89q96 39 137 74q2 31 1 66.5t-7 64t-26.5 48t-55.5 19.5q-98 0 -106 -155h-94q6 39 9 59.5t16.5 57t31.5 55t52 35t81 16.5q55 0 93 -18.5t56.5 -41t29 -62.5t11.5 -63.5t1 -64.5v-291q0 -133 24 -182h-92q-12 23 -16 63q-63 -72 -162 -71 q-158 0 -158 166zM141 930q0 -96 76 -96q45 0 86 37.5t49 125.5q6 55 6 144q-59 -35 -98 -51q-39 -20 -58.5 -33t-40 -46.5t-20.5 -80.5z" />
<glyph unicode="&#xab;" horiz-adv-x="1024" d="M86 528l309 451h90l-264 -451l264 -454h-90zM508 528l309 451h90l-264 -451l264 -454h-90z" />
<glyph unicode="&#xac;" d="M57 676v86h795v-440h-86v354h-709z" />
<glyph unicode="&#xad;" horiz-adv-x="681" d="M74 465v129h534v-129h-534z" />
<glyph unicode="&#xae;" horiz-adv-x="1638" d="M55 727q0 319 224.5 541.5t540 222.5t539.5 -223.5t224 -540.5q0 -315 -224 -539.5t-539.5 -224.5t-540 223.5t-224.5 540.5zM147 727q0 -279 197 -475.5t475.5 -196.5t475 197t196.5 475q0 281 -197.5 476.5t-474 195.5t-474.5 -195.5t-198 -476.5zM510 317v803h334 q76 0 132 -20.5t81.5 -47t40 -62.5t16.5 -51t2 -32q0 -53 -19.5 -95t-46 -64.5t-63.5 -38t-60.5 -20.5t-47.5 -7v-4q61 -20 93 -47t70.5 -94.5t104.5 -219.5h-121l-22 48q-94 197 -153.5 249t-193.5 52h-47v-349h-100zM610 750h133q80 0 129.5 8t88 43t38.5 98 q0 61 -34.5 94t-78.5 39t-126 6h-150v-288z" />
<glyph unicode="&#xaf;" horiz-adv-x="681" d="M39 1227v110h604v-110h-604z" />
<glyph unicode="&#xb0;" horiz-adv-x="819" d="M123 1204q0 119 84 203t202.5 84t202.5 -84t84 -203t-84 -202.5t-202.5 -83.5t-202.5 83.5t-84 202.5zM205 1204q0 -84 60.5 -144.5t144.5 -60.5t144 60.5t60 144.5q0 86 -60 145.5t-144 59.5t-144.5 -59.5t-60.5 -145.5z" />
<glyph unicode="&#xb1;" d="M57 0v86h795v-86h-795zM57 678v86h355v354h86v-354h354v-86h-354v-354h-86v354h-355z" />
<glyph unicode="&#xb2;" horiz-adv-x="544" d="M33 741q12 63 49 113.5t151 165.5q98 98 131 152.5t33 111.5q0 51 -24.5 82t-46 38t-39.5 7q-47 0 -78 -27.5t-38 -51t-15 -62.5l-103 6q25 215 226 215q111 0 166 -61.5t55 -145.5q0 -72 -39 -135.5t-131 -155.5q-104 -104 -146 -166h322v-86h-473z" />
<glyph unicode="&#xb3;" horiz-adv-x="544" d="M55 920l95 12q25 -137 122 -137q45 0 85 37.5t40 117.5q0 76 -41 109t-92 33q-4 0 -53 -7l10 80q147 16 148 135q0 45 -29 77t-72 32q-27 0 -45 -9t-28.5 -20.5t-18.5 -32t-10 -31.5t-4 -30l-92 8q27 197 198 197q61 0 104.5 -20.5t62 -53.5t24.5 -58.5t6 -49.5 q0 -115 -109 -166v-4q80 -14 112 -73.5t32 -117.5q0 -84 -56.5 -159.5t-173.5 -75.5q-178 0 -215 207z" />
<glyph unicode="&#xb4;" horiz-adv-x="681" d="M246 1200l96 262h190l-198 -262h-88z" />
<glyph unicode="&#xb5;" d="M135 -406v1467h121v-758q0 -49 3 -76.5t15.5 -67.5t45 -59.5t83.5 -19.5q100 0 172 78q80 88 80 286v617h119v-1061h-119v104q-123 -131 -245 -131q-55 0 -156 35v-414h-119z" />
<glyph unicode="&#xb6;" horiz-adv-x="1155" d="M78 1051q0 139 71.5 236t173 139t218.5 42l57 -2h524v-123h-110v-1751h-123v1751h-230v-1751h-122v1037q-217 -12 -338 113t-121 309z" />
<glyph unicode="&#xb7;" horiz-adv-x="454" d="M143 625v192h170v-192h-170z" />
<glyph unicode="&#xb8;" horiz-adv-x="681" d="M172 -401l6 79q209 0 209 101q0 82 -158 82l47 162h93l-39 -125q180 -12 180 -134q0 -53 -33 -88.5t-88 -52t-107.5 -21.5t-109.5 -3z" />
<glyph unicode="&#xb9;" horiz-adv-x="544" d="M23 1217v90q158 68 221 184h71v-750h-98v590q-81 -79 -194 -114z" />
<glyph unicode="&#xba;" horiz-adv-x="544" d="M47 1104q0 51 1 79.5t7 82t20.5 87t38 68.5t64.5 52.5t96 17.5q61 0 105.5 -26.5t67 -62.5t35 -92.5t15.5 -97.5t3 -96q0 -41 -1 -67.5t-7.5 -77.5t-20.5 -85t-36.5 -71t-62.5 -55.5t-93 -18.5q-232 1 -232 363zM145 1108q0 -55 2.5 -90t13.5 -89.5t38.5 -82t72.5 -27.5 q43 0 71 23.5t39 71t15 92.5t4 112q0 70 -4 117t-16 91t-38 65.5t-67 21.5q-45 0 -72.5 -24.5t-39.5 -74.5t-15.5 -93t-3.5 -113z" />
<glyph unicode="&#xbb;" horiz-adv-x="1024" d="M117 74l264 454l-264 451h90l309 -451l-309 -454h-90zM539 74l264 454l-264 451h90l309 -451l-309 -454h-90z" />
<glyph unicode="&#xbc;" horiz-adv-x="1363" d="M82 1225v82q137 72 237 184h62v-754h-94v609q-74 -70 -205 -121zM244 -55l768 1546h90l-768 -1546h-90zM834 182v78l278 494h86v-494h94v-78h-94v-182h-86v182h-278zM924 260h188v346h-4z" />
<glyph unicode="&#xbd;" horiz-adv-x="1363" d="M61 1225v82q137 72 238 184h61v-754h-94v609q-74 -70 -205 -121zM223 -55l768 1546h90l-768 -1546h-90zM807 0q6 59 42 114.5t152 180.5q70 76 102 112.5t60.5 82t28.5 77.5q0 47 -39 77t-94 30q-37 0 -62.5 -13.5t-40 -38t-19.5 -43t-11 -47.5l-97 7q10 121 77 168 t151 47t152.5 -46t68.5 -128q0 -70 -43 -136.5t-158 -187.5q-70 -76 -93 -105.5t-46 -74.5h330v-76h-461z" />
<glyph unicode="&#xbe;" horiz-adv-x="1363" d="M47 928l94 8q10 -141 123 -141q66 0 96.5 48t30.5 105q0 68 -37 105t-81 38t-80 -1l6 73q47 -12 99 19.5t52 128.5q0 102 -90 102q-86 0 -104 -125l-88 8q25 195 200 195q86 0 135.5 -49t49.5 -133q0 -123 -117 -172q156 -59 156 -185q0 -100 -66 -169.5t-168 -69.5 q-18 0 -36.5 2t-49.5 14t-54.5 32.5t-44 64t-26.5 102.5zM244 -55l768 1546h90l-768 -1546h-90zM834 182v78l278 494h86v-494h94v-78h-94v-182h-86v182h-278zM924 260h188v346h-4z" />
<glyph unicode="&#xbf;" horiz-adv-x="796" d="M74 -109q0 164 141 379q88 135 113.5 208t23.5 222h125q2 -141 -24.5 -237t-120.5 -238q-43 -66 -66.5 -105.5t-43 -100t-19.5 -121.5q0 -98 50 -157.5t136 -59.5q51 0 88 21.5t57.5 48t34 71.5t17.5 71.5t8 69.5h129q-4 -49 -9 -81t-27.5 -98.5t-56.5 -106t-99.5 -73.5 t-153.5 -34q-137 0 -220 87t-83 234zM324 868v193h170v-193h-170z" />
<glyph unicode="&#xc0;" horiz-adv-x="1024" d="M-2 0l422 1417l147 49l457 -1466h-145l-123 410h-504l-117 -410h-137zM283 520h440l-229 756zM373 1831h164l55 -264h-88z" />
<glyph unicode="&#xc1;" horiz-adv-x="1024" d="M-2 0l422 1417l147 49l457 -1466h-145l-123 410h-504l-117 -410h-137zM283 520h440l-229 756zM418 1569l96 262h191l-199 -262h-88z" />
<glyph unicode="&#xc2;" horiz-adv-x="1024" d="M-2 0l422 1417l147 49l457 -1466h-145l-123 410h-504l-117 -410h-137zM260 1569l178 260h150l178 -260h-125l-131 190l-125 -190h-125zM283 520h440l-229 756z" />
<glyph unicode="&#xc3;" horiz-adv-x="1024" d="M-2 0l422 1417l147 49l457 -1466h-145l-123 410h-504l-117 -410h-137zM244 1599q0 20 3 43t14 61t42 61.5t74 23.5t147 -47q86 -39 113 -39q53 0 63 86h82q0 -78 -30.5 -133.5t-96.5 -55.5q-51 0 -141 43q-86 43 -119 44q-25 0 -40 -15.5t-19 -30t-8 -41.5h-84zM283 520 h440l-229 756z" />
<glyph unicode="&#xc4;" horiz-adv-x="1024" d="M-2 0l422 1417l147 49l457 -1466h-145l-123 410h-504l-117 -410h-137zM283 520h440l-229 756zM297 1581v174h123v-174h-123zM606 1581v174h123v-174h-123z" />
<glyph unicode="&#xc5;" horiz-adv-x="1024" d="M-2 0l422 1417l147 49l457 -1466h-145l-123 410h-504l-117 -410h-137zM283 520h440l-229 756zM334 1704q0 74 51 126t127 52t128 -52t52 -126q0 -76 -52 -128t-128 -52q-74 0 -126 53t-52 127zM399 1702q0 -49 33 -81t82 -32q47 0 80 33t33 80t-33 81t-80 34 q-45 0 -80 -31t-35 -84z" />
<glyph unicode="&#xc6;" horiz-adv-x="1478" d="M2 0l528 1466h820v-116h-484v-539h428v-117h-428v-577h508v-117h-641v446h-434l-160 -446h-137zM338 563h395v787h-115z" />
<glyph unicode="&#xc7;" horiz-adv-x="1138" d="M102 721q0 70 1 113t10.5 133t27 150.5t54 137t87 123.5t131.5 80t183 33q356 0 446 -430l-129 -31q-10 57 -27.5 107.5t-52 111t-98 96t-147.5 35.5q-102 0 -172 -49t-107 -141t-52 -199.5t-15 -249.5q0 -137 14 -243.5t49 -204.5t105.5 -152.5t175.5 -54.5 q61 0 110 18.5t83 55.5t58.5 73.5t41 90t24.5 85t17 80.5l127 -26q-66 -467 -429 -488l-16 -65q131 -31 131 -141q0 -195 -327 -183l6 78q209 -12 209 98q0 80 -138 93l41 125q-422 49 -422 741z" />
<glyph unicode="&#xc8;" d="M168 0v1466l633 -2v-116l-500 2v-551h461v-105h-461v-577h526v-117h-659zM315 1831h164l56 -264h-89z" />
<glyph unicode="&#xc9;" d="M168 0v1466l633 -2v-116l-500 2v-551h461v-105h-461v-577h526v-117h-659zM360 1569l97 262h190l-198 -262h-89z" />
<glyph unicode="&#xca;" d="M168 0v1466l633 -2v-116l-500 2v-551h461v-105h-461v-577h526v-117h-659zM203 1569l178 260h149l179 -260h-125l-131 190l-125 -190h-125z" />
<glyph unicode="&#xcb;" d="M168 0v1466l633 -2v-116l-500 2v-551h461v-105h-461v-577h526v-117h-659zM240 1581v174h122v-174h-122zM549 1581v174h123v-174h-123z" />
<glyph unicode="&#xcc;" horiz-adv-x="454" d="M88 1831h164l55 -264h-88zM162 0v1427l133 39v-1466h-133z" />
<glyph unicode="&#xcd;" horiz-adv-x="454" d="M133 1569l96 262h191l-199 -262h-88zM162 0v1427l133 39v-1466h-133z" />
<glyph unicode="&#xce;" horiz-adv-x="454" d="M-25 1569l179 260h149l178 -260h-125l-131 190l-125 -190h-125zM162 0v1427l133 39v-1466h-133z" />
<glyph unicode="&#xcf;" horiz-adv-x="454" d="M12 1581v174h123v-174h-123zM162 0v1427l133 39v-1466h-133zM322 1581v174h122v-174h-122z" />
<glyph unicode="&#xd0;" horiz-adv-x="1138" d="M2 676v117h168v673h260q115 0 190.5 -9t161.5 -49t137.5 -111.5t85 -201.5t33.5 -317q0 -262 -28.5 -382t-94.5 -214q-57 -80 -140 -123t-146.5 -51t-157.5 -8h-301v676h-168zM303 117h133q147 -2 239.5 35.5t141.5 126t65.5 197t16.5 280.5q0 113 -8 193.5t-34 160.5 t-70 129t-119.5 80t-182.5 31h-182v-557h301v-117h-301v-559z" />
<glyph unicode="&#xd1;" horiz-adv-x="1138" d="M166 0v1413l166 53l516 -1298v1298h125v-1466h-172l-510 1255v-1255h-125zM301 1599q0 20 3 43t14.5 61t42 61.5t73.5 23.5t148 -47q86 -39 112 -39q53 0 64 86h82q0 -78 -31 -133.5t-96 -55.5q-51 0 -142 43q-86 43 -118 44q-25 0 -40.5 -15.5t-19.5 -30t-8 -41.5h-84z " />
<glyph unicode="&#xd2;" horiz-adv-x="1138" d="M104 739q0 293 48 430q113 322 421 322q92 0 166 -29.5t122 -75t82 -116t51.5 -132t26.5 -148.5t11 -140t2 -127q0 -66 -1 -112t-11 -127t-26.5 -140t-51.5 -128t-82 -113t-121.5 -73.5t-169 -29.5t-169 28.5t-123 71.5t-83 112t-52 128t-26.5 143t-11.5 134t-2.5 122z M244 735q0 -354 80 -506q31 -57 98 -100t149 -43q66 0 118 25.5t85 62.5t57.5 97.5t37 111.5t18.5 127t7 122t1 113q0 92 -3 161t-21.5 170.5t-50.5 167t-94 113.5t-151 48q-102 0 -170.5 -56.5t-102.5 -160t-46 -210t-12 -243.5zM430 1831h164l55 -264h-88z" />
<glyph unicode="&#xd3;" horiz-adv-x="1138" d="M104 739q0 293 48 430q113 322 421 322q92 0 166 -29.5t122 -75t82 -116t51.5 -132t26.5 -148.5t11 -140t2 -127q0 -66 -1 -112t-11 -127t-26.5 -140t-51.5 -128t-82 -113t-121.5 -73.5t-169 -29.5t-169 28.5t-123 71.5t-83 112t-52 128t-26.5 143t-11.5 134t-2.5 122z M244 735q0 -354 80 -506q31 -57 98 -100t149 -43q66 0 118 25.5t85 62.5t57.5 97.5t37 111.5t18.5 127t7 122t1 113q0 92 -3 161t-21.5 170.5t-50.5 167t-94 113.5t-151 48q-102 0 -170.5 -56.5t-102.5 -160t-46 -210t-12 -243.5zM475 1569l96 262h191l-199 -262h-88z" />
<glyph unicode="&#xd4;" horiz-adv-x="1138" d="M104 739q0 293 48 430q113 322 421 322q92 0 166 -29.5t122 -75t82 -116t51.5 -132t26.5 -148.5t11 -140t2 -127q0 -66 -1 -112t-11 -127t-26.5 -140t-51.5 -128t-82 -113t-121.5 -73.5t-169 -29.5t-169 28.5t-123 71.5t-83 112t-52 128t-26.5 143t-11.5 134t-2.5 122z M244 735q0 -354 80 -506q31 -57 98 -100t149 -43q66 0 118 25.5t85 62.5t57.5 97.5t37 111.5t18.5 127t7 122t1 113q0 92 -3 161t-21.5 170.5t-50.5 167t-94 113.5t-151 48q-102 0 -170.5 -56.5t-102.5 -160t-46 -210t-12 -243.5zM317 1569l179 260h149l178 -260h-125 l-131 190l-125 -190h-125z" />
<glyph unicode="&#xd5;" horiz-adv-x="1138" d="M104 739q0 293 48 430q113 322 421 322q92 0 166 -29.5t122 -75t82 -116t51.5 -132t26.5 -148.5t11 -140t2 -127q0 -66 -1 -112t-11 -127t-26.5 -140t-51.5 -128t-82 -113t-121.5 -73.5t-169 -29.5t-169 28.5t-123 71.5t-83 112t-52 128t-26.5 143t-11.5 134t-2.5 122z M244 735q0 -354 80 -506q31 -57 98 -100t149 -43q66 0 118 25.5t85 62.5t57.5 97.5t37 111.5t18.5 127t7 122t1 113q0 92 -3 161t-21.5 170.5t-50.5 167t-94 113.5t-151 48q-102 0 -170.5 -56.5t-102.5 -160t-46 -210t-12 -243.5zM301 1599q0 20 3 43t14.5 61t42 61.5 t73.5 23.5t148 -47q86 -39 112 -39q53 0 64 86h82q0 -78 -31 -133.5t-96 -55.5q-51 0 -142 43q-86 43 -118 44q-25 0 -40.5 -15.5t-19.5 -30t-8 -41.5h-84z" />
<glyph unicode="&#xd6;" horiz-adv-x="1138" d="M104 739q0 293 48 430q113 322 421 322q92 0 166 -29.5t122 -75t82 -116t51.5 -132t26.5 -148.5t11 -140t2 -127q0 -66 -1 -112t-11 -127t-26.5 -140t-51.5 -128t-82 -113t-121.5 -73.5t-169 -29.5t-169 28.5t-123 71.5t-83 112t-52 128t-26.5 143t-11.5 134t-2.5 122z M244 735q0 -354 80 -506q31 -57 98 -100t149 -43q66 0 118 25.5t85 62.5t57.5 97.5t37 111.5t18.5 127t7 122t1 113q0 92 -3 161t-21.5 170.5t-50.5 167t-94 113.5t-151 48q-102 0 -170.5 -56.5t-102.5 -160t-46 -210t-12 -243.5zM354 1581v174h123v-174h-123zM664 1581v174 h122v-174h-122z" />
<glyph unicode="&#xd7;" d="M123 393l276 328l-276 340l67 51l263 -326l270 322l65 -51l-282 -336l272 -336l-59 -57l-266 327l-269 -325z" />
<glyph unicode="&#xd8;" horiz-adv-x="1138" d="M82 0l115 193q-92 180 -93 526q0 309 48 450q109 322 419 322q201 0 318 -135l92 157l76 -47l-113 -192q90 -184 90 -543q0 -66 -1 -108.5t-10 -129.5t-25.5 -147.5t-50.5 -135.5t-82 -122t-123.5 -80t-170.5 -33q-205 0 -321 136l-92 -154zM244 709q0 -246 37 -373 l534 895q-80 150 -242 149q-74 0 -130 -26.5t-91 -79.5t-57.5 -112.5t-32.5 -142.5t-14 -151.5t-4 -158.5zM322 231q39 -70 108.5 -107.5t142.5 -37.5q66 0 117 25.5t85 62.5t57.5 97.5t36 112.5t18.5 127t7 120t1 112q0 260 -39 385z" />
<glyph unicode="&#xd9;" horiz-adv-x="1138" d="M180 1425l135 52v-1010q0 -47 1 -73.5t8.5 -78t25 -84t45 -66.5t76.5 -51.5t113 -17.5q166 0 235 137q33 68 33 297v947h133v-957q0 -170 -20 -256q-61 -264 -381 -264q-82 0 -147.5 19.5t-106.5 47t-71 74.5t-44 85t-22.5 96.5t-9.5 89t-1 82.5zM430 1831h164l55 -264 h-88z" />
<glyph unicode="&#xda;" horiz-adv-x="1138" d="M180 1425l135 52v-1010q0 -47 1 -73.5t8.5 -78t25 -84t45 -66.5t76.5 -51.5t113 -17.5q166 0 235 137q33 68 33 297v947h133v-957q0 -170 -20 -256q-61 -264 -381 -264q-82 0 -147.5 19.5t-106.5 47t-71 74.5t-44 85t-22.5 96.5t-9.5 89t-1 82.5zM475 1569l96 262h191 l-199 -262h-88z" />
<glyph unicode="&#xdb;" horiz-adv-x="1138" d="M180 1425l135 52v-1010q0 -47 1 -73.5t8.5 -78t25 -84t45 -66.5t76.5 -51.5t113 -17.5q166 0 235 137q33 68 33 297v947h133v-957q0 -170 -20 -256q-61 -264 -381 -264q-82 0 -147.5 19.5t-106.5 47t-71 74.5t-44 85t-22.5 96.5t-9.5 89t-1 82.5zM317 1569l179 260h149 l178 -260h-125l-131 190l-125 -190h-125z" />
<glyph unicode="&#xdc;" horiz-adv-x="1138" d="M180 1425l135 52v-1010q0 -47 1 -73.5t8.5 -78t25 -84t45 -66.5t76.5 -51.5t113 -17.5q166 0 235 137q33 68 33 297v947h133v-957q0 -170 -20 -256q-61 -264 -381 -264q-82 0 -147.5 19.5t-106.5 47t-71 74.5t-44 85t-22.5 96.5t-9.5 89t-1 82.5zM354 1581v174h123v-174 h-123zM664 1581v174h122v-174h-122z" />
<glyph unicode="&#xdd;" horiz-adv-x="1024" d="M14 1466h152l344 -725l354 725h146l-443 -835v-631h-133v631zM418 1569l96 262h191l-199 -262h-88z" />
<glyph unicode="&#xde;" horiz-adv-x="1024" d="M168 0v1466h133v-319h145q182 0 283 -47q211 -100 211 -373q0 -264 -221 -367q-96 -45 -295 -45h-123v-315h-133zM301 432h86q68 0 106.5 2t105.5 17.5t104.5 45t67.5 89t30 145.5q0 72 -19.5 126t-56.5 85t-72 50.5t-87 26.5t-78.5 9t-67.5 2h-119v-598z" />
<glyph unicode="&#xdf;" d="M137 0v1116q0 61 4 104.5t20.5 98.5t47.5 89t89 58.5t138 24.5q78 0 138.5 -24.5t91 -58.5t50 -73t23.5 -60.5t4 -29.5q0 -111 -98 -287q-18 -35 -44 -71.5t-39 -57t-13 -34.5q0 -31 17.5 -56.5t103.5 -126.5q102 -119 140 -192.5t38 -157.5q0 -131 -77 -209t-185 -78 q-84 0 -164 72t-100 160l127 -2q59 -119 141 -119q57 0 98 50t41 118q0 53 -30.5 113.5t-64.5 102.5t-99 114q-61 68 -88 108.5t-27 85.5q0 8 3 18.5t12 28t19.5 35t32 55t41.5 74.5q59 109 78 152t19 92q0 55 -58.5 105.5t-132.5 50.5q-51 0 -88 -24t-53.5 -52.5 t-25.5 -77.5t-10 -70.5t-1 -62.5v-1102h-119z" />
<glyph unicode="&#xe0;" horiz-adv-x="796" d="M82 266q0 133 69.5 212t233.5 134q113 39 170 74l-2 53q0 59 -4 96t-19.5 81.5t-51.5 67t-93 22.5q-23 0 -43 -5.5t-34.5 -16.5t-27 -23.5t-21.5 -31t-15 -31.5t-11.5 -34.5t-7.5 -31t-5 -30t-3 -22.5q-2 -2 -12 -2q-41 4 -109 2q18 143 72 207q72 90 219 90 q78 0 134.5 -26.5t85 -62.5t44 -93t18.5 -95t3 -91v-412q0 -106 13 -156.5t58 -140.5h-135q-20 61 -28 94q-74 -100 -232 -100q-113 0 -189.5 65.5t-76.5 206.5zM205 279q0 -86 46 -143.5t109 -57.5q43 0 89.5 32.5t68.5 77.5q25 51 31 134.5t6 285.5q-106 -51 -129 -59 q-221 -88 -221 -270zM258 1462h164l55 -264h-88z" />
<glyph unicode="&#xe1;" horiz-adv-x="796" d="M82 266q0 133 69.5 212t233.5 134q113 39 170 74l-2 53q0 59 -4 96t-19.5 81.5t-51.5 67t-93 22.5q-23 0 -43 -5.5t-34.5 -16.5t-27 -23.5t-21.5 -31t-15 -31.5t-11.5 -34.5t-7.5 -31t-5 -30t-3 -22.5q-2 -2 -12 -2q-41 4 -109 2q18 143 72 207q72 90 219 90 q78 0 134.5 -26.5t85 -62.5t44 -93t18.5 -95t3 -91v-412q0 -106 13 -156.5t58 -140.5h-135q-20 61 -28 94q-74 -100 -232 -100q-113 0 -189.5 65.5t-76.5 206.5zM205 279q0 -86 46 -143.5t109 -57.5q43 0 89.5 32.5t68.5 77.5q25 51 31 134.5t6 285.5q-106 -51 -129 -59 q-221 -88 -221 -270zM303 1200l96 262h191l-199 -262h-88z" />
<glyph unicode="&#xe2;" horiz-adv-x="796" d="M82 266q0 133 69.5 212t233.5 134q113 39 170 74l-2 53q0 59 -4 96t-19.5 81.5t-51.5 67t-93 22.5q-23 0 -43 -5.5t-34.5 -16.5t-27 -23.5t-21.5 -31t-15 -31.5t-11.5 -34.5t-7.5 -31t-5 -30t-3 -22.5q-2 -2 -12 -2q-41 4 -109 2q18 143 72 207q72 90 219 90 q78 0 134.5 -26.5t85 -62.5t44 -93t18.5 -95t3 -91v-412q0 -106 13 -156.5t58 -140.5h-135q-20 61 -28 94q-74 -100 -232 -100q-113 0 -189.5 65.5t-76.5 206.5zM145 1200l179 260h149l178 -260h-125l-131 191l-125 -191h-125zM205 279q0 -86 46 -143.5t109 -57.5 q43 0 89.5 32.5t68.5 77.5q25 51 31 134.5t6 285.5q-106 -51 -129 -59q-221 -88 -221 -270z" />
<glyph unicode="&#xe3;" horiz-adv-x="796" d="M82 266q0 133 69.5 212t233.5 134q113 39 170 74l-2 53q0 59 -4 96t-19.5 81.5t-51.5 67t-93 22.5q-23 0 -43 -5.5t-34.5 -16.5t-27 -23.5t-21.5 -31t-15 -31.5t-11.5 -34.5t-7.5 -31t-5 -30t-3 -22.5q-2 -2 -12 -2q-41 4 -109 2q18 143 72 207q72 90 219 90 q78 0 134.5 -26.5t85 -62.5t44 -93t18.5 -95t3 -91v-412q0 -106 13 -156.5t58 -140.5h-135q-20 61 -28 94q-74 -100 -232 -100q-113 0 -189.5 65.5t-76.5 206.5zM129 1231q0 20 3 42.5t14.5 60.5t42 61.5t73.5 23.5t148 -47q86 -39 112 -39q53 0 64 86h82q0 -78 -31 -133 t-96 -55q-51 0 -142 43q-86 43 -118 43q-25 0 -40.5 -15.5t-19.5 -30t-8 -40.5h-84zM205 279q0 -86 46 -143.5t109 -57.5q43 0 89.5 32.5t68.5 77.5q25 51 31 134.5t6 285.5q-106 -51 -129 -59q-221 -88 -221 -270z" />
<glyph unicode="&#xe4;" horiz-adv-x="796" d="M82 266q0 133 69.5 212t233.5 134q113 39 170 74l-2 53q0 59 -4 96t-19.5 81.5t-51.5 67t-93 22.5q-23 0 -43 -5.5t-34.5 -16.5t-27 -23.5t-21.5 -31t-15 -31.5t-11.5 -34.5t-7.5 -31t-5 -30t-3 -22.5q-2 -2 -12 -2q-41 4 -109 2q18 143 72 207q72 90 219 90 q78 0 134.5 -26.5t85 -62.5t44 -93t18.5 -95t3 -91v-412q0 -106 13 -156.5t58 -140.5h-135q-20 61 -28 94q-74 -100 -232 -100q-113 0 -189.5 65.5t-76.5 206.5zM182 1212v174h123v-174h-123zM205 279q0 -86 46 -143.5t109 -57.5q43 0 89.5 32.5t68.5 77.5q25 51 31 134.5 t6 285.5q-106 -51 -129 -59q-221 -88 -221 -270zM492 1212v174h122v-174h-122z" />
<glyph unicode="&#xe5;" horiz-adv-x="796" d="M82 266q0 133 69.5 212t233.5 134q113 39 170 74l-2 53q0 59 -4 96t-19.5 81.5t-51.5 67t-93 22.5q-23 0 -43 -5.5t-34.5 -16.5t-27 -23.5t-21.5 -31t-15 -31.5t-11.5 -34.5t-7.5 -31t-5 -30t-3 -22.5q-2 -2 -12 -2q-41 4 -109 2q18 143 72 207q72 90 219 90 q78 0 134.5 -26.5t85 -62.5t44 -93t18.5 -95t3 -91v-412q0 -106 13 -156.5t58 -140.5h-135q-20 61 -28 94q-74 -100 -232 -100q-113 0 -189.5 65.5t-76.5 206.5zM205 279q0 -86 46 -143.5t109 -57.5q43 0 89.5 32.5t68.5 77.5q25 51 31 134.5t6 285.5q-106 -51 -129 -59 q-221 -88 -221 -270zM219 1335.5q0 73.5 51.5 125.5t127 52t128 -52t52.5 -126q0 -76 -52.5 -128t-128.5 -52q-74 0 -126 53.5t-52 127zM285 1333q0 -49 32.5 -80.5t81.5 -31.5q47 0 80 32.5t33 79.5t-33 81t-80 34q-45 0 -79.5 -31t-34.5 -84z" />
<glyph unicode="&#xe6;" horiz-adv-x="1251" d="M76 270q0 139 69.5 205t235.5 119q123 41 186 78v82q0 25 -3 67.5t-9 60t-17.5 43t-28.5 36t-44 18.5t-62 8q-100 0 -140 -51t-46 -152l-119 15q2 35 6.5 61.5t22.5 72.5t47 75.5t84 53t131 23.5t131 -19t73.5 -35.5t41.5 -45.5q82 100 225 100q96 0 163 -42t94.5 -107.5 t45 -143t12 -149.5t-3.5 -129h-485v-53q0 -82 6 -142.5t24.5 -121t57.5 -92t98 -31.5q53 0 92.5 28.5t57.5 73.5t26.5 85t10.5 81l112 -18q-23 -348 -299 -349q-61 0 -107 15.5t-78 45.5t-47 50t-36 57q-20 -33 -34.5 -51t-47.5 -51t-79 -49.5t-103 -16.5q-102 0 -183 71.5 t-81 223.5zM195 264q0 -86 49 -133t114 -47q74 0 128.5 55.5t68.5 147.5q12 84 12 286q-80 -39 -157 -67q-109 -41 -162 -90.5t-53 -151.5zM686 616h367q4 66 -1 123.5t-23.5 118t-60.5 95t-106 34.5q-57 0 -95 -25.5t-54.5 -73.5t-21.5 -90t-5 -102v-80z" />
<glyph unicode="&#xe7;" horiz-adv-x="796" d="M84 549q0 59 1 98t8 100.5t18.5 103.5t36 90t57.5 77t84 48t117 19q84 0 143 -29.5t91 -87t45 -103.5t26 -115l-115 -27q-18 264 -193 264q-47 0 -82.5 -15.5t-56 -51t-33 -67.5t-17.5 -91.5t-6 -91t-1 -99.5q0 -164 14.5 -265t62.5 -166.5t134 -65.5q47 0 82 21.5t52 46 t30.5 72.5t16.5 73.5t7 74.5l115 -20q-6 -51 -10 -82t-22.5 -88t-44.5 -92t-76 -66.5t-117 -38.5l-13 -71q63 -2 108.5 -34t45.5 -89q0 -88 -86 -135q-66 -37 -201 -37l-6 76q188 10 188 98q0 72 -131 72l23 122q-68 6 -120 36t-83 81t-50.5 103.5t-28.5 123t-11 118 t-2 110.5z" />
<glyph unicode="&#xe8;" horiz-adv-x="796" d="M80 567q0 109 12 192t45 159.5t99.5 118.5t162.5 42q322 0 322 -458v-95h-518q2 -96 9 -154.5t26.5 -134t65.5 -113.5t116 -38q59 0 99 29.5t56.5 78t21.5 80t7 66.5h117q-31 -338 -301 -338q-172 0 -256 126t-84 439zM203 629h399v67q0 23 -1 41.5t-6 58.5t-18.5 71.5 t-34 63.5t-56 50t-83.5 18q-45 0 -77.5 -13t-54 -45t-35 -59.5t-19.5 -79.5t-9 -82t-5 -91zM258 1462h164l55 -264h-88z" />
<glyph unicode="&#xe9;" horiz-adv-x="796" d="M80 567q0 109 12 192t45 159.5t99.5 118.5t162.5 42q322 0 322 -458v-95h-518q2 -96 9 -154.5t26.5 -134t65.5 -113.5t116 -38q59 0 99 29.5t56.5 78t21.5 80t7 66.5h117q-31 -338 -301 -338q-172 0 -256 126t-84 439zM203 629h399v67q0 23 -1 41.5t-6 58.5t-18.5 71.5 t-34 63.5t-56 50t-83.5 18q-45 0 -77.5 -13t-54 -45t-35 -59.5t-19.5 -79.5t-9 -82t-5 -91zM303 1200l96 262h191l-199 -262h-88z" />
<glyph unicode="&#xea;" horiz-adv-x="796" d="M80 567q0 109 12 192t45 159.5t99.5 118.5t162.5 42q322 0 322 -458v-95h-518q2 -96 9 -154.5t26.5 -134t65.5 -113.5t116 -38q59 0 99 29.5t56.5 78t21.5 80t7 66.5h117q-31 -338 -301 -338q-172 0 -256 126t-84 439zM145 1200l179 260h149l178 -260h-125l-131 191 l-125 -191h-125zM203 629h399v67q0 23 -1 41.5t-6 58.5t-18.5 71.5t-34 63.5t-56 50t-83.5 18q-45 0 -77.5 -13t-54 -45t-35 -59.5t-19.5 -79.5t-9 -82t-5 -91z" />
<glyph unicode="&#xeb;" horiz-adv-x="796" d="M80 567q0 109 12 192t45 159.5t99.5 118.5t162.5 42q322 0 322 -458v-95h-518q2 -96 9 -154.5t26.5 -134t65.5 -113.5t116 -38q59 0 99 29.5t56.5 78t21.5 80t7 66.5h117q-31 -338 -301 -338q-172 0 -256 126t-84 439zM182 1212v174h123v-174h-123zM203 629h399v67 q0 23 -1 41.5t-6 58.5t-18.5 71.5t-34 63.5t-56 50t-83.5 18q-45 0 -77.5 -13t-54 -45t-35 -59.5t-19.5 -79.5t-9 -82t-5 -91zM492 1212v174h122v-174h-122z" />
<glyph unicode="&#xec;" horiz-adv-x="409" d="M66 1462h163l56 -264h-88zM145 0v1065h119v-1065h-119z" />
<glyph unicode="&#xed;" horiz-adv-x="409" d="M111 1200l96 262h190l-198 -262h-88zM145 0v1065h119v-1065h-119z" />
<glyph unicode="&#xee;" horiz-adv-x="409" d="M-47 1200l178 260h150l178 -260h-125l-131 191l-125 -191h-125zM145 0v1065h119v-1065h-119z" />
<glyph unicode="&#xef;" horiz-adv-x="409" d="M-10 1212v174h123v-174h-123zM145 0v1065h119v-1065h-119zM299 1212v174h123v-174h-123z" />
<glyph unicode="&#xf0;" d="M86 555q0 31 1 56.5t7 85t17.5 104.5t36 102.5t58.5 95t89 63t123 25.5q98 0 176 -69l4 4q-55 102 -152 221q-14 14 -20 27l-223 -123l-41 67l209 115q-66 70 -158 137h135q8 -6 23 -20q2 -2 28.5 -25.5t32.5 -27.5l19 -19l165 92l46 -67l-150 -84q68 -78 105.5 -129 t96 -153.5t87 -230.5t28.5 -280q0 -88 -14 -170t-50 -174t-114 -147.5t-188 -55.5q-377 0 -377 580zM209 537q0 -463 242 -463q84 0 139 51t78.5 136t31 148.5t7.5 131.5q0 233 -81 340.5t-186 107.5q-231 1 -231 -452z" />
<glyph unicode="&#xf1;" d="M135 0v1061h119v-109h4q23 35 37 52.5t65.5 39t126.5 21.5q82 0 143.5 -35t90.5 -85t41 -91t12 -70v-784h-119v748q0 233 -180 233q-121 0 -184 -127q-37 -74 -37 -240v-614h-119zM186 1231q0 20 3.5 42.5t14.5 60.5t41.5 61.5t73.5 23.5t148 -47q86 -39 113 -39 q53 0 63 86h82q0 -78 -30.5 -133t-96.5 -55q-51 0 -141 43q-86 43 -119 43q-25 0 -40 -15.5t-19.5 -30t-8.5 -40.5h-84z" />
<glyph unicode="&#xf2;" d="M84 549q0 518 369 518q373 0 372 -537q0 -535 -370 -534q-94 0 -163 31.5t-108 82t-62.5 126t-30.5 148.5t-7 165zM207 553q0 -59 3 -107.5t11 -106.5t25.5 -102t44 -83t68.5 -59.5t98 -20.5q246 0 245 467q0 446 -247.5 446t-247.5 -434zM315 1462h164l56 -264h-89z" />
<glyph unicode="&#xf3;" d="M84 549q0 518 369 518q373 0 372 -537q0 -535 -370 -534q-94 0 -163 31.5t-108 82t-62.5 126t-30.5 148.5t-7 165zM207 553q0 -59 3 -107.5t11 -106.5t25.5 -102t44 -83t68.5 -59.5t98 -20.5q246 0 245 467q0 446 -247.5 446t-247.5 -434zM360 1200l97 262h190l-198 -262 h-89z" />
<glyph unicode="&#xf4;" d="M84 549q0 518 369 518q373 0 372 -537q0 -535 -370 -534q-94 0 -163 31.5t-108 82t-62.5 126t-30.5 148.5t-7 165zM203 1200l178 260h149l179 -260h-125l-131 191l-125 -191h-125zM207 553q0 -59 3 -107.5t11 -106.5t25.5 -102t44 -83t68.5 -59.5t98 -20.5q246 0 245 467 q0 446 -247.5 446t-247.5 -434z" />
<glyph unicode="&#xf5;" d="M84 549q0 518 369 518q373 0 372 -537q0 -535 -370 -534q-94 0 -163 31.5t-108 82t-62.5 126t-30.5 148.5t-7 165zM186 1231q0 20 3.5 42.5t14.5 60.5t41.5 61.5t73.5 23.5t148 -47q86 -39 113 -39q53 0 63 86h82q0 -78 -30.5 -133t-96.5 -55q-51 0 -141 43 q-86 43 -119 43q-25 0 -40 -15.5t-19.5 -30t-8.5 -40.5h-84zM207 553q0 -59 3 -107.5t11 -106.5t25.5 -102t44 -83t68.5 -59.5t98 -20.5q246 0 245 467q0 446 -247.5 446t-247.5 -434z" />
<glyph unicode="&#xf6;" d="M84 549q0 518 369 518q373 0 372 -537q0 -535 -370 -534q-94 0 -163 31.5t-108 82t-62.5 126t-30.5 148.5t-7 165zM207 553q0 -59 3 -107.5t11 -106.5t25.5 -102t44 -83t68.5 -59.5t98 -20.5q246 0 245 467q0 446 -247.5 446t-247.5 -434zM240 1212v174h122v-174h-122z M549 1212v174h123v-174h-123z" />
<glyph unicode="&#xf7;" d="M57 676v86h795v-86h-795zM389 346v139h131v-139h-131zM389 952v140h131v-140h-131z" />
<glyph unicode="&#xf8;" d="M82 514q0 141 16 252q4 25 12.5 54.5t34 79.5t61.5 89t100.5 67.5t144.5 28.5q150 0 243 -92l70 117l63 -39l-86 -141q82 -135 82 -398q0 -557 -368 -557q-145 0 -238 84l-74 -120l-57 38l82 140q-86 139 -86 397zM205 553q0 -211 37 -313l389 649q-59 98 -180 98 q-246 0 -246 -434zM281 164q59 -90 174 -90q246 0 245 461q0 174 -30 276z" />
<glyph unicode="&#xf9;" d="M137 324v698l117 39v-709q0 -92 48 -184t126 -92q137 0 190 131q37 94 37 239v615h119v-1061h-119l2 100q-70 -109 -233 -104q-102 2 -171 61.5t-92.5 128t-23.5 138.5zM315 1462h164l56 -264h-89z" />
<glyph unicode="&#xfa;" d="M137 324v698l117 39v-709q0 -92 48 -184t126 -92q137 0 190 131q37 94 37 239v615h119v-1061h-119l2 100q-70 -109 -233 -104q-102 2 -171 61.5t-92.5 128t-23.5 138.5zM360 1200l97 262h190l-198 -262h-89z" />
<glyph unicode="&#xfb;" d="M137 324v698l117 39v-709q0 -92 48 -184t126 -92q137 0 190 131q37 94 37 239v615h119v-1061h-119l2 100q-70 -109 -233 -104q-102 2 -171 61.5t-92.5 128t-23.5 138.5zM203 1200l178 260h149l179 -260h-125l-131 191l-125 -191h-125z" />
<glyph unicode="&#xfc;" d="M137 324v698l117 39v-709q0 -92 48 -184t126 -92q137 0 190 131q37 94 37 239v615h119v-1061h-119l2 100q-70 -109 -233 -104q-102 2 -171 61.5t-92.5 128t-23.5 138.5zM240 1212v174h122v-174h-122zM549 1212v174h123v-174h-123z" />
<glyph unicode="&#xfd;" horiz-adv-x="796" d="M0 1061h115l291 -911l270 911h117l-379 -1249l-4 -17q-35 -117 -78 -171t-127 -54q-53 0 -121 14v121q82 -16 102 -16q61 0 80 49q37 88 41 106l45 156zM303 1200l96 262h191l-199 -262h-88z" />
<glyph unicode="&#xfe;" d="M141 -408v1874h119v-526h4q78 145 244 145q317 0 317 -534q0 -70 -3 -125t-13 -127t-32.5 -125t-56.5 -100t-90.5 -73t-127.5 -26q-176 0 -238 146h-4v-529h-119zM260 498q0 -147 27 -244q49 -180 198 -180q217 0 217 426q0 49 -1 78.5t-5 88t-11 95.5t-22.5 84t-38 74.5 t-57.5 47t-80 19.5q-145 0 -196 -186q-31 -113 -31 -303z" />
<glyph unicode="&#xff;" horiz-adv-x="796" d="M0 1061h115l291 -911l270 911h117l-379 -1249l-4 -17q-35 -117 -78 -171t-127 -54q-53 0 -121 14v121q82 -16 102 -16q61 0 80 49q37 88 41 106l45 156zM182 1212v174h123v-174h-123zM492 1212v174h122v-174h-122z" />
<glyph unicode="&#x152;" horiz-adv-x="1593" d="M102 700q0 78 1 125t9.5 139.5t24 154t48 138t77.5 122.5t117 79t162 33q94 0 164.5 -35t97 -66.5t59.5 -84.5h4v161h611v-116h-496v-541h442v-117h-442v-575h516v-117h-631v176h-4q-35 -59 -61.5 -95t-93 -71t-156.5 -35q-203 0 -311 138q-72 90 -105 214.5t-33 372.5z M242 688q0 -254 43 -383q74 -219 264 -219q174 0 246 195q55 154 55 477q0 279 -51 422q-70 201 -248 200q-88 0 -153.5 -49t-94.5 -119q-61 -149 -61 -524z" />
<glyph unicode="&#x153;" horiz-adv-x="1366" d="M88 510q0 575 373 575q172 0 268 -165q78 166 252 165q160 0 236.5 -124.5t76.5 -317.5q0 -6 -2 -61.5t-2 -67.5h-497q-8 -438 200 -438q156 0 189 241l2 29l112 -16q-6 -49 -11 -80t-25.5 -89.5t-51 -93t-88 -63.5t-133.5 -29q-68 0 -119 19.5t-79.5 55.5t-41 57.5 t-24.5 54.5q-23 -43 -37 -65.5t-47 -56.5t-81 -49.5t-114 -15.5q-356 0 -356 535zM211 569q0 -104 9 -184t31.5 -154.5t71 -115.5t119.5 -41q74 0 123 43t70.5 122.5t29 153.5t7.5 174q0 420 -223 420q-123 0 -180.5 -119t-57.5 -299zM795 616h379q0 23 1 40.5t1 23.5 q0 35 -4.5 69.5t-19.5 97t-58 101.5t-109 39q-43 0 -74.5 -13t-51 -44t-33 -58.5t-19.5 -79t-8 -84.5t-4 -92z" />
<glyph unicode="&#x178;" horiz-adv-x="1024" d="M14 1466h152l344 -725l354 725h146l-443 -835v-631h-133v631zM297 1581v174h123v-174h-123zM606 1581v174h123v-174h-123z" />
<glyph unicode="&#x2c6;" horiz-adv-x="681" d="M88 1200l178 260h150l178 -260h-125l-131 191l-125 -191h-125z" />
<glyph unicode="&#x2dc;" horiz-adv-x="681" d="M72 1231q0 20 3 42.5t14 60.5t42 61.5t74 23.5t147 -47q86 -39 113 -39q53 0 63 86h82q0 -78 -30.5 -133t-96.5 -55q-51 0 -141 43q-86 43 -119 43q-25 0 -40 -15.5t-19 -30t-8 -40.5h-84z" />
<glyph unicode="&#x2000;" horiz-adv-x="940" />
<glyph unicode="&#x2001;" horiz-adv-x="1882" />
<glyph unicode="&#x2002;" horiz-adv-x="940" />
<glyph unicode="&#x2003;" horiz-adv-x="1882" />
<glyph unicode="&#x2004;" horiz-adv-x="626" />
<glyph unicode="&#x2005;" horiz-adv-x="468" />
<glyph unicode="&#x2006;" horiz-adv-x="313" />
<glyph unicode="&#x2007;" horiz-adv-x="313" />
<glyph unicode="&#x2008;" horiz-adv-x="233" />
<glyph unicode="&#x2009;" horiz-adv-x="374" />
<glyph unicode="&#x200a;" horiz-adv-x="104" />
<glyph unicode="&#x2010;" horiz-adv-x="681" d="M76 612h534l2 -118h-534z" />
<glyph unicode="&#x2011;" horiz-adv-x="681" d="M76 612h534l2 -118h-534z" />
<glyph unicode="&#x2012;" horiz-adv-x="681" d="M76 612h534l2 -118h-534z" />
<glyph unicode="&#x2013;" horiz-adv-x="1024" d="M-12 465v94h1048v-94h-1048z" />
<glyph unicode="&#x2014;" horiz-adv-x="2048" d="M-12 465v94h2072v-94h-2072z" />
<glyph unicode="&#x2018;" horiz-adv-x="327" d="M98 1024v203q0 94 31 150.5t102 113.5l54 -74q-49 -37 -74 -79t-18 -121h75v-193h-170z" />
<glyph unicode="&#x2019;" horiz-adv-x="327" d="M43 1098q49 37 73.5 79t18.5 121h-76v193h170v-203q0 -94 -30.5 -150.5t-102.5 -113.5z" />
<glyph unicode="&#x201a;" horiz-adv-x="454" d="M117 -201q45 33 66.5 77t15.5 124h-76v193h170v-203q0 -88 -47 -154.5t-129 -132.5v96z" />
<glyph unicode="&#x201c;" horiz-adv-x="681" d="M102 1024v203q0 94 31 150.5t103 113.5l53 -74q-49 -35 -74 -78t-18 -122h75v-193h-170zM410 1024v203q0 94 30.5 150.5t102.5 113.5l53 -74q-49 -37 -73.5 -79t-18.5 -121h76v-193h-170z" />
<glyph unicode="&#x201d;" horiz-adv-x="681" d="M86 1098q49 37 73.5 79t18.5 121h-76v193h170v-203q0 -94 -30.5 -150.5t-102.5 -113.5zM393 1098q49 35 74 78t18 122h-75v193h170v-203q0 -94 -31 -150.5t-103 -113.5z" />
<glyph unicode="&#x201e;" horiz-adv-x="675" d="M82 -201q49 37 73.5 79t18.5 122h-76v193h170v-203q0 -94 -30.5 -150.5t-102.5 -113.5zM389 -201q49 35 73.5 78t18.5 123h-75v193h169v-203q0 -94 -30.5 -150.5t-102.5 -113.5z" />
<glyph unicode="&#x2022;" horiz-adv-x="1241" d="M371 716.5q0 104.5 73.5 177.5t176 73t176 -74t73.5 -176q0 -104 -73.5 -177t-176 -73t-176 72.5t-73.5 177z" />
<glyph unicode="&#x2026;" horiz-adv-x="2048" d="M256 0v193h170v-193h-170zM940 0v193h170v-193h-170zM1624 0v193h170v-193h-170z" />
<glyph unicode="&#x202f;" horiz-adv-x="374" />
<glyph unicode="&#x2039;" horiz-adv-x="681" d="M127 528l309 451h90l-264 -451l264 -454h-90z" />
<glyph unicode="&#x203a;" horiz-adv-x="681" d="M156 74l264 454l-264 451h90l309 -451l-309 -454h-90z" />
<glyph unicode="&#x205f;" horiz-adv-x="468" />
<glyph unicode="&#x20ac;" d="M2 578v88h100v108h-100v88h102q14 293 142 449q125 156 350 155q131 0 248 -104v-121q-109 127 -256 127q-156 0 -248 -131q-94 -131 -111 -375h484v-88h-488v-33q0 -59 2 -75h486v-88h-482q18 -238 113 -373q94 -131 242 -131q162 0 254 114v-125q-94 -88 -252 -88 q-215 0 -340 158q-123 158 -142 445h-104z" />
<glyph unicode="&#x2122;" horiz-adv-x="1478" d="M-31 1384v82h586v-82h-248v-737h-96v737h-242zM649 647v819h131l197 -665h4l209 665h131v-819h-82v725h-4l-227 -725h-60l-213 725h-4v-725h-82z" />
<glyph unicode="&#xe000;" horiz-adv-x="1060" d="M0 1060h1060v-1060h-1060v1060z" />
<glyph unicode="&#xfb01;" d="M25 973v88h133v196q0 233 204 234q43 0 144 -18l-25 -101q-61 12 -100 12q-111 0 -107 -133l2 -47v-143h170v-88h-170v-973h-118v973h-133zM627 0v1065h118v-1065h-118zM627 1282v184h118v-184h-118z" />
<glyph unicode="&#xfb02;" d="M20 973v88h134v196q0 233 204 234q43 0 144 -18l-25 -101q-61 12 -100 12q-111 0 -107 -133l2 -47v-143h170v-88h-170v-973h-118v973h-134zM623 0v1466h118v-1466h-118z" />
<glyph unicode="&#xfb03;" horiz-adv-x="1363" d="M1077 0v1065h119v-1065h-119zM1077 1343v123h119v-123h-119zM514 975v88l95 -2v196q0 233 204 234q18 0 119 -18v-101q-55 39 -98 39q-104 0 -105 -133l-2 -217h170v-88h-170v-973h-118v973zM59 975v88l95 -2v196q0 233 204 234q18 0 119 -18v-101q-55 39 -98 39 q-104 0 -105 -133l-2 -217h170v-88h-170v-973h-118v973z" />
<glyph unicode="&#xfb04;" horiz-adv-x="1363" d="M1077 0v1427l119 39v-1466h-119zM514 975v88l95 -2v196q0 233 204 234q18 0 119 -18v-101q-55 39 -98 39q-104 0 -105 -133l-2 -217h170v-88h-170v-973h-118v973zM59 975v88l95 -2v196q0 233 204 234q18 0 119 -18v-101q-55 39 -98 39q-104 0 -105 -133l-2 -217h170v-88 h-170v-973h-118v973z" />
</font>
</defs>
</svg>
